# xmcd
#
# Track frame offsets: 
#        150
#        29912
#        61277
#        84794
#        112425
#        149556
#        153156
#        188488
#        228074
#        266106
#        287801
#
# Disc length: 4116 seconds
#
# Revision: 0
# Processed by: cddbd v1.5.2PL0 Copyright (c) Steve Scherf et al.
# Submitted via: ExactAudioCopy v1.3
#
DISCID=9c10120b
DTITLE=Emanuel Young With Howard Glazer and The El 34's - Live In Detroi
DTITLE=t
DYEAR=2008
DGENRE=Electric Blues
TTITLE0=Lucky Lucy
TTITLE1=out Skirts of Town
TTITLE2=I Should Have Quit You
TTITLE3=Give Me Back My Wig
TTITLE4=On No, My Baby Don't Want Me Anymore
TTITLE5=Back Door Man [Dialoge]
TTITLE6=Back Door Man
TTITLE7=Tore Up Over You
TTITLE8=I'm in the Mood
TTITLE9=Train
TTITLE10=Poor Boy
EXTD=
EXTT0=
EXTT1=
EXTT2=
EXTT3=
EXTT4=
EXTT5=
EXTT6=
EXTT7=
EXTT8=
EXTT9=
EXTT10=
PLAYORDER=
